<svg width="331" height="56" viewBox="0 0 331 56" fill="none" xmlns="http://www.w3.org/2000/svg">
<g clip-path="url(#clip0_132_30)">
<mask id="mask0_132_30" style="mask-type:luminance" maskUnits="userSpaceOnUse" x="0" y="-1" width="330" height="57">
<path d="M0.764404 -0.403625H329.495V55.3762H0.764404V-0.403625Z" fill="white"/>
</mask>
<g mask="url(#mask0_132_30)">
<mask id="mask1_132_30" style="mask-type:luminance" maskUnits="userSpaceOnUse" x="0" y="-1" width="330" height="57">
<path d="M0.764404 55.3762H329.495V-0.403625H0.764404V55.3762Z" fill="white"/>
</mask>
<g mask="url(#mask1_132_30)">
<path d="M129.676 5.70134C129.676 4.3765 130.202 3.10592 131.139 2.16912C132.076 1.23232 133.346 0.706024 134.671 0.706024C135.996 0.706024 137.266 1.23232 138.203 2.16912C139.14 3.10592 139.666 4.3765 139.666 5.70134C139.618 6.99392 139.071 8.21747 138.139 9.11488C137.208 10.0123 135.965 10.5137 134.671 10.5137C133.378 10.5137 132.134 10.0123 131.203 9.11488C130.271 8.21747 129.724 6.99392 129.676 5.70134Z" fill="#273B7D"/>
<path d="M208.491 39.0162C208.491 36.2438 210.724 34.0035 213.476 34.0035C214.804 34.0035 216.079 34.5313 217.018 35.4707C217.957 36.4101 218.485 37.6842 218.485 39.0127C218.485 40.3413 217.957 41.6154 217.018 42.5548C216.079 43.4942 214.804 44.022 213.476 44.022C210.728 44.022 208.491 41.7783 208.491 39.0127" fill="#499FDD"/>
<path d="M47.6948 36.849C43.3953 36.849 40.4036 33.433 40.4036 28.549C40.4036 23.6685 43.3952 20.2559 47.6982 20.2559C52.0222 20.2559 55.0451 23.6685 55.0451 28.549C55.0451 33.5095 52.0884 36.849 47.6948 36.849ZM47.6948 12.9612C38.5947 12.9612 31.9888 19.5184 31.9888 28.549C31.9888 37.583 38.5982 44.1367 47.6948 44.1367C56.8332 44.1367 63.4633 37.583 63.4633 28.5524C63.4633 19.5184 56.8297 12.9612 47.6948 12.9612ZM120.001 29.3317C119.685 28.7191 119.284 28.1536 118.812 27.6515L118.534 27.3628L118.826 27.0845C119.243 26.6427 119.671 26.1209 120.082 25.5156L128.117 13.5769H118.363L112.328 22.9171C111.987 23.418 111.298 23.6685 110.265 23.6685H108.891V6.01092C108.891 2.48011 106.689 2.00006 104.313 2.00006H100.243L100.253 43.6775H108.894V31.1753H109.705C110.689 31.1753 111.357 31.2901 111.667 31.8258L116.432 40.8216C117.765 43.2636 119.09 43.6775 121.588 43.6775H128.208L123.275 35.5236L120.005 29.3317M161.947 12.8917C157.55 12.8917 154.746 14.8466 153.174 16.499L152.652 17.0277L152.464 16.3077C152.005 14.5371 150.447 13.5665 148.105 13.5665H144.234L144.258 43.6671H152.84V29.7943C152.84 28.4377 153.014 27.2619 153.375 26.187C154.329 22.9345 156.993 20.9134 160.322 20.9134C163.001 20.9134 164.048 22.3292 164.048 25.9817V39.0927C164.048 42.2096 165.492 43.6671 168.612 43.6671H172.696L172.682 24.5207C172.682 16.9164 168.97 12.8917 161.947 12.8917ZM134.775 13.5769H130.709L130.737 36.8525V43.6775H135.074L135.228 43.6845L137.252 43.6775H139.263V43.6671H139.277L139.294 18.1513C139.294 15.0728 137.823 13.5804 134.779 13.5804M81.3992 36.849C77.0996 36.849 74.1045 33.433 74.1045 28.549C74.1045 23.6685 77.0997 20.2559 81.4028 20.2559C85.7163 20.2559 88.7496 23.6685 88.7496 28.549C88.7496 33.5095 85.7928 36.849 81.4028 36.849H81.3992ZM81.3992 12.9612C72.2921 12.9612 65.6827 19.5184 65.6827 28.549C65.6827 37.583 72.2922 44.1367 81.4028 44.1367C90.5272 44.1367 97.1713 37.583 97.1713 28.5524C97.1713 19.5184 90.5272 12.9612 81.4028 12.9612" fill="#273B7D"/>
</g>
</g>
<mask id="mask2_132_30" style="mask-type:luminance" maskUnits="userSpaceOnUse" x="0" y="-1" width="330" height="57">
<path d="M0.764404 -0.403625H329.495V55.3762H0.764404V-0.403625Z" fill="white"/>
</mask>
<g mask="url(#mask2_132_30)">
<mask id="mask3_132_30" style="mask-type:luminance" maskUnits="userSpaceOnUse" x="0" y="0" width="330" height="56">
<path d="M0.764404 0.695679H329.425V55.3032H0.764404V0.695679Z" fill="white"/>
</mask>
<g mask="url(#mask3_132_30)">
<mask id="mask4_132_30" style="mask-type:luminance" maskUnits="userSpaceOnUse" x="0" y="-1" width="330" height="57">
<path d="M0.764404 55.3762H329.495V-0.403625H0.764404V55.3762Z" fill="white"/>
</mask>
<g mask="url(#mask4_132_30)">
<path d="M265.332 36.849C261.032 36.849 258.034 33.433 258.034 28.549C258.034 23.6685 261.032 20.2559 265.332 20.2559C269.652 20.2559 272.682 23.6685 272.682 28.549C272.682 33.5095 269.725 36.849 265.332 36.849ZM265.332 12.9612C256.225 12.9612 249.619 19.5184 249.619 28.549C249.619 37.583 256.225 44.1367 265.332 44.1367C274.46 44.1367 281.101 37.583 281.101 28.5524C281.101 19.5184 274.456 12.9612 265.332 12.9612Z" fill="#499FDD"/>
<path d="M190.774 35.5237C186.082 35.5237 184.412 31.4329 184.412 27.5959C184.412 25.9053 184.84 20.3986 190.326 20.3986C193.049 20.3986 196.677 21.1779 196.677 27.8777C196.677 34.1984 193.467 35.5237 190.774 35.5237ZM201.134 13.497C199.506 13.497 198.253 14.1476 197.624 15.3338L197.387 15.7929L196.991 15.4451C195.606 14.2484 193.122 12.8257 189.091 12.8257C181.065 12.8257 175.663 18.8541 175.663 27.8186C175.663 36.7795 181.253 43.0411 189.251 43.0411C191.981 43.0411 194.142 42.401 195.853 41.1069L196.514 40.6095V41.4444C196.514 45.4657 193.915 47.685 189.202 47.685C186.91 47.685 184.826 47.1284 183.427 46.6206C181.612 46.0709 180.54 46.5266 179.806 48.3529L179.124 50.0366L178.161 52.4995L178.756 52.816C181.775 54.4162 185.703 55.3728 189.251 55.3728C196.556 55.3728 205.092 51.6333 205.092 41.1069L205.124 13.497H201.134Z" fill="#273B7D"/>
</g>
</g>
</g>
<mask id="mask5_132_30" style="mask-type:luminance" maskUnits="userSpaceOnUse" x="0" y="-1" width="330" height="57">
<path d="M0.764404 -0.403625H329.495V55.3762H0.764404V-0.403625Z" fill="white"/>
</mask>
<g mask="url(#mask5_132_30)">
<mask id="mask6_132_30" style="mask-type:luminance" maskUnits="userSpaceOnUse" x="0" y="-1" width="330" height="57">
<path d="M0.764404 55.3762H329.495V-0.403625H0.764404V55.3762Z" fill="white"/>
</mask>
<g mask="url(#mask6_132_30)">
<path d="M15.7399 36.5047L8.75481 36.4978V28.1491C8.75481 26.361 9.44706 25.4357 10.9742 25.22H15.7399C19.1385 25.22 21.337 27.3629 21.3404 30.8311C21.337 34.3932 19.1942 36.5012 15.7399 36.5012V36.5047ZM8.75481 13.9771V11.7786C8.75481 9.85493 9.56884 8.94005 11.3534 8.82178H14.9295C17.9941 8.82178 19.8308 10.655 19.8308 13.7266C19.8308 16.0643 18.5715 18.795 15.0407 18.795H8.75481V13.9771ZM24.6592 22.3119L23.3963 21.6023L24.4991 20.6596C25.7827 19.5568 27.9291 17.0766 27.9291 12.7979C27.9291 6.24411 22.8503 2.0141 14.9851 2.0141H4.98743C3.86248 2.05511 2.7965 2.52737 2.01029 3.33302C1.22408 4.13865 0.777951 5.2159 0.764404 6.34151V43.5281H15.1624C23.9042 43.5281 29.5466 38.7693 29.5466 31.3981C29.5466 27.429 27.7239 24.0373 24.6592 22.3119Z" fill="#273B7D"/>
<path d="M319.431 12.9926C317.66 12.9991 315.912 13.4036 314.318 14.1761C312.724 14.9486 311.323 16.0694 310.22 17.4557L309.601 18.2419L309.114 17.3618C307.521 14.4641 304.786 12.9926 300.984 12.9926C296.994 12.9926 294.319 15.2189 293.077 16.5408L292.263 17.4209L291.95 16.2625C291.498 14.5928 290.013 13.6779 287.766 13.6779H284.158L284.123 43.6637H292.316V30.4275C292.316 29.2657 292.462 28.1212 292.75 26.9211C293.533 23.7207 295.683 20.2803 299.297 20.6247C301.523 20.8404 302.616 22.5623 302.616 25.8879V43.6637H310.867V30.4275C310.867 28.9769 311.003 27.8916 311.33 26.8063C311.991 23.752 314.238 20.6213 317.724 20.6213C320.249 20.6213 321.181 22.0475 321.181 25.8879V39.2806C321.181 42.307 322.531 43.6637 325.561 43.6637H329.415L329.422 24.5208C329.422 16.8713 326.055 12.9926 319.431 12.9926ZM244.87 33.2522C244.846 33.2835 241.322 36.9987 236.678 36.9987C232.448 36.9987 228.177 34.4036 228.177 28.6117C228.177 23.6094 231.488 20.1134 236.233 20.1134C237.771 20.1134 239.524 20.663 239.799 21.5918L239.837 21.7483C240.012 22.3878 240.394 22.9515 240.922 23.3521C241.45 23.7528 242.096 23.9679 242.759 23.9642L247.246 23.9712V20.0473C247.246 14.8711 240.661 12.9926 236.233 12.9926C226.757 12.9926 219.883 19.5881 219.883 28.6743C219.883 37.7535 226.681 44.342 236.059 44.342C244.192 44.342 248.617 38.9954 248.659 38.9432L248.895 38.651L245.34 32.7547L244.87 33.2522Z" fill="#499FDD"/>
</g>
</g>
</g>
<defs>
<clipPath id="clip0_132_30">
<rect width="330.189" height="56" fill="white"/>
</clipPath>
</defs>
</svg>
