<svg width="28" height="24" viewBox="0 0 28 24" fill="none" xmlns="http://www.w3.org/2000/svg">
<path d="M1.50342 0H0.378418V2.25H1.50342H3.94561L6.77217 17.0859L6.94561 18H7.87842H23.2534H24.3784V15.75H23.2534H8.81123L8.38467 13.5H23.6284L27.3784 1.5H6.09717L5.98467 0.914062L5.81123 0H4.87842H1.50342ZM8.62842 24C9.22515 24 9.79745 23.7629 10.2194 23.341C10.6414 22.919 10.8784 22.3467 10.8784 21.75C10.8784 21.1533 10.6414 20.581 10.2194 20.159C9.79745 19.7371 9.22515 19.5 8.62842 19.5C8.03168 19.5 7.45938 19.7371 7.03743 20.159C6.61547 20.581 6.37842 21.1533 6.37842 21.75C6.37842 22.3467 6.61547 22.919 7.03743 23.341C7.45938 23.7629 8.03168 24 8.62842 24ZM24.3784 21.75C24.3784 21.1533 24.1414 20.581 23.7194 20.159C23.2975 19.7371 22.7252 19.5 22.1284 19.5C21.5317 19.5 20.9594 19.7371 20.5374 20.159C20.1155 20.581 19.8784 21.1533 19.8784 21.75C19.8784 22.3467 20.1155 22.919 20.5374 23.341C20.9594 23.7629 21.5317 24 22.1284 24C22.7252 24 23.2975 23.7629 23.7194 23.341C24.1414 22.919 24.3784 22.3467 24.3784 21.75Z" fill="white"/>
</svg>
