<svg width="175" height="64" viewBox="0 0 175 64" fill="none" xmlns="http://www.w3.org/2000/svg">
<path d="M155.472 63.9585C152.828 63.9585 144.725 63.9585 142.696 63.9585C142.657 63.9585 142.538 63.7172 142.361 63.3037H57.7672V63.9929H163.163V63.9585C161.201 63.9585 158.07 63.9585 155.472 63.9585Z" fill="black"/>
<path d="M142.359 63.3018C142.535 63.7153 142.655 63.9565 142.694 63.9565C144.723 63.9565 152.825 63.9565 155.47 63.9565C158.068 63.9565 161.199 63.9565 163.161 63.9565V63.3018H142.359Z" fill="black"/>
<path d="M161.006 61.2502H162.748V60.561H159.217C159.738 60.7678 160.209 60.9539 160.544 61.0825C160.696 61.14 160.85 61.1951 161.004 61.2502H161.006Z" fill="black"/>
<path d="M57.7649 60.561V61.2502H141.543C141.458 61.0297 141.368 60.7977 141.279 60.561H57.7672H57.7649Z" fill="black"/>
<path d="M57.7649 57.8203V58.5095H140.498C140.41 58.2798 140.323 58.05 140.236 57.8203H57.7649Z" fill="black"/>
<path d="M146.296 57.8203C146.388 58.0661 146.508 58.2982 146.657 58.5095H149.251C149.163 58.2798 149.076 58.05 148.989 57.8203H146.296Z" fill="black"/>
<path d="M162.334 58.5095V57.8203H155.047C155.139 58.0661 155.258 58.2982 155.408 58.5095H162.334Z" fill="black"/>
<path d="M147.941 55.0791H145.552C145.614 55.318 145.676 55.5478 145.736 55.7683H148.208C148.118 55.534 148.028 55.3042 147.941 55.0791Z" fill="black"/>
<path d="M57.7649 55.0791V55.7683H139.455C139.365 55.534 139.275 55.3042 139.188 55.0791H57.7649Z" fill="black"/>
<path d="M161.921 55.7683V55.0791H154.302C154.365 55.3157 154.427 55.5478 154.486 55.7683H161.921Z" fill="black"/>
<path d="M161.507 53.0276V52.3384H153.577C153.639 52.5704 153.698 52.8024 153.76 53.0276H161.507Z" fill="black"/>
<path d="M146.832 52.3384H144.826C144.888 52.5727 144.948 52.8024 145.01 53.0276H147.126C147.02 52.7726 146.921 52.5405 146.834 52.3384H146.832Z" fill="black"/>
<path d="M57.7649 52.3384V53.0276H138.373C138.267 52.7726 138.168 52.5405 138.081 52.3384H57.7672H57.7649Z" fill="black"/>
<path d="M161.094 50.2869V49.5977H152.851C152.913 49.8297 152.972 50.0594 153.034 50.2869H161.094Z" fill="black"/>
<path d="M82.2641 49.5977C81.6989 49.832 81.143 50.064 80.61 50.2869H136.879C136.746 50.064 136.608 49.832 136.475 49.5977H82.2641Z" fill="black"/>
<path d="M145.226 49.5977H144.1C144.162 49.8297 144.222 50.0594 144.284 50.2869H145.632C145.499 50.064 145.361 49.832 145.228 49.5977H145.226Z" fill="black"/>
<path d="M143.556 47.5461H144.187C144.121 47.344 144.052 47.1096 143.981 46.8569H143.374C143.434 47.0867 143.496 47.3164 143.556 47.5461Z" fill="black"/>
<path d="M135.228 46.8569H89.0183C88.9264 46.8684 88.8621 46.8822 88.8276 46.896C88.7518 46.9236 88.1407 47.174 87.231 47.5461H135.434C135.368 47.344 135.299 47.1096 135.228 46.8569Z" fill="black"/>
<path d="M160.68 47.5461V46.8569H152.125C152.184 47.0867 152.246 47.3164 152.306 47.5461H160.68Z" fill="black"/>
<path d="M160.264 44.8035V44.1143H151.396C151.456 44.3417 151.518 44.5714 151.578 44.8035H160.264Z" fill="black"/>
<path d="M134.605 44.1143H113.373L112.84 44.4474C112.642 44.5714 112.438 44.6886 112.233 44.8035H134.738C134.69 44.5737 134.646 44.3417 134.603 44.1143H134.605Z" fill="black"/>
<path d="M142.829 44.8035H143.493C143.445 44.5737 143.401 44.3417 143.358 44.1143H142.648C142.708 44.3417 142.77 44.5714 142.829 44.8035Z" fill="black"/>
<path d="M143.043 42.1936C142.981 41.9432 142.873 41.7112 142.733 41.5044H141.954C142.014 41.7295 142.074 41.9593 142.136 42.1936H143.043Z" fill="black"/>
<path d="M159.818 42.1936V41.5044H150.707C150.767 41.7295 150.827 41.9593 150.889 42.1936H159.818Z" fill="black"/>
<path d="M133.985 41.5044H117.536L116.437 42.1936H134.293C134.23 41.9432 134.127 41.7112 133.985 41.5044Z" fill="black"/>
<path d="M57.7649 38.7246V39.4138H100.381C100.546 39.2162 100.737 38.9819 100.951 38.7246H57.7649Z" fill="black"/>
<path d="M157.078 39.4138V38.7246H149.97C150.027 38.9429 150.089 39.1726 150.151 39.4138H157.078Z" fill="black"/>
<path d="M126.371 38.7246H121.96L120.862 39.4138H128.682C127.936 39.191 127.155 38.9589 126.371 38.7246Z" fill="black"/>
<path d="M149.393 36.636H154.342V35.9468H148.922C149.124 36.1444 149.283 36.3764 149.393 36.636Z" fill="black"/>
<path d="M57.7649 35.9468V36.636H102.678C102.869 36.4063 103.06 36.1765 103.248 35.9468H57.7649Z" fill="black"/>
<path d="M151.601 33.8586V33.1694H145.026C145.363 33.4084 145.69 33.6381 146.004 33.8586H151.601Z" fill="black"/>
<path d="M57.765 33.1694V33.8586H104.974C105.192 33.5944 105.385 33.3601 105.541 33.1694H57.7627H57.765Z" fill="black"/>
<path d="M106.922 30.3921H57.7649V31.0813H106.703C106.772 30.8608 106.839 30.6402 106.912 30.422C106.915 30.4128 106.919 30.4013 106.922 30.3921Z" fill="black"/>
<path d="M148.862 31.0813V30.3921H141.083C141.407 30.6195 141.734 30.8516 142.062 31.0813H148.862Z" fill="black"/>
<path d="M107.877 27.6143H57.7649V28.3035H107.625C107.629 28.2897 107.634 28.2759 107.638 28.2621C107.712 28.0439 107.792 27.8279 107.875 27.6143H107.877Z" fill="black"/>
<path d="M146.124 28.3035V27.6143H137.141C137.444 27.8279 137.773 28.0599 138.12 28.3035H146.124Z" fill="black"/>
<path d="M143.385 25.5261V24.8369H135.618C135.317 25.1884 135.115 25.4273 135.035 25.5261H143.383H143.385Z" fill="black"/>
<path d="M57.765 24.8369V25.5261H108.874C109.008 25.2918 109.148 25.0621 109.293 24.8369H57.7627H57.765Z" fill="black"/>
<path d="M140.647 22.7483V22.0591H138.016C137.812 22.2957 137.612 22.5254 137.419 22.7483H140.647Z" fill="black"/>
<path d="M111.585 22.0591H57.7649V22.7483H110.91C111.128 22.5117 111.351 22.2819 111.583 22.0591H111.585Z" fill="black"/>
<path d="M84.6763 19.4473V20.1365H113.573C113.752 19.9343 113.958 19.7 114.184 19.4473H84.6763Z" fill="black"/>
<path d="M148.198 20.1365V19.4473H140.279C140.08 19.677 139.88 19.909 139.682 20.1365H148.198Z" fill="black"/>
<path d="M150.05 17.3567V16.6675H142.68C142.485 16.8926 142.287 17.1224 142.085 17.3567H150.05Z" fill="black"/>
<path d="M84.6763 16.6675V17.3567H116.031C116.233 17.1293 116.435 16.8995 116.64 16.6675H84.6763Z" fill="black"/>
<path d="M84.6763 13.8896V14.5789H118.482C118.693 14.3399 118.896 14.1079 119.089 13.8896H84.6763Z" fill="black"/>
<path d="M151.902 14.5789V13.8896H145.069C144.89 14.101 144.693 14.3307 144.479 14.5789H151.902Z" fill="black"/>
<path d="M149.917 11.8015H153.753V11.1123H150.684C150.489 11.3053 150.305 11.4868 150.156 11.6361C150.085 11.705 150.002 11.7602 149.917 11.8015Z" fill="black"/>
<path d="M104.296 11.1125C104.077 11.1699 103.862 11.2297 103.648 11.2825C102.793 11.4525 101.98 11.6662 101.107 11.7098C100.078 11.7604 99.0555 11.7098 98.0262 11.7098C98.1112 11.7098 98.3502 11.4249 98.4099 11.3698C98.4558 11.3285 98.573 11.2366 98.7384 11.1102H95.5451C95.3268 11.1676 95.1109 11.2274 94.8972 11.2802C94.0426 11.4502 93.2293 11.6639 92.3563 11.7075C91.3271 11.7581 90.3048 11.7075 89.2756 11.7075C89.3606 11.7075 89.5995 11.4226 89.6592 11.3675C89.7052 11.3262 89.8223 11.2343 89.9855 11.1079H84.674V11.7971H120.676C120.407 11.6363 119.697 11.3744 118.907 11.1079H104.296V11.1125Z" fill="black"/>
<path d="M147.22 11.1123H146.14C146.105 11.1468 146.073 11.1881 146.05 11.241C146.043 11.2593 146.048 11.5052 146.043 11.8015H149.159C148.754 11.6591 148.24 11.4799 147.902 11.365C147.762 11.3168 147.502 11.2042 147.22 11.1123Z" fill="black"/>
<path d="M155.607 9.02417V8.33496H153.039C152.998 8.5647 152.83 8.80133 152.641 9.02417H155.607Z" fill="black"/>
<path d="M94.8099 8.33496H84.6763V9.02417H92.8526C93.4109 8.64281 93.8496 8.36712 93.9599 8.36483C94.0886 8.36023 94.4056 8.34875 94.8122 8.33496H94.8099Z" fill="black"/>
<path d="M157.461 6.24634V5.55713H153.74C153.581 5.76849 153.397 6.00512 153.25 6.24634H157.461Z" fill="black"/>
<path d="M116.908 5.65592C117.03 5.63064 117.198 5.59618 117.398 5.55713H84.674V6.24634H112.465C114.177 6.02349 115.861 5.80754 116.453 5.73173C116.605 5.71105 116.754 5.68808 116.906 5.65592H116.908Z" fill="black"/>
<path d="M145.049 3.14277C145.104 3.0256 145.15 2.90384 145.187 2.77979H144.837C144.911 2.89465 144.982 3.01412 145.049 3.14277Z" fill="black"/>
<path d="M159.313 3.46899V2.77979H153.588C153.719 2.98655 153.848 3.22088 153.949 3.46899H159.313Z" fill="black"/>
<path d="M84.6762 2.77979V3.46899H136.112C136.25 3.25304 136.36 3.02101 136.434 2.77979H84.674H84.6762Z" fill="black"/>
<path d="M137.826 0.294063C137.826 0.294063 141.614 0.294063 142.77 0.294063C142.976 0.294063 143.169 0.395147 143.289 0.565152L143.376 0.68921H146.14C146.321 0.496231 146.519 0.294063 146.576 0.294063C146.576 0.294063 150.365 0.294063 151.52 0.294063C151.727 0.294063 151.92 0.395147 152.04 0.565152L152.127 0.68921H161.165V0H84.674V0.68921H137.387C137.568 0.496231 137.766 0.294063 137.823 0.294063H137.826Z" fill="black"/>
<path d="M151.523 0.293945C150.367 0.293945 146.579 0.293945 146.579 0.293945C146.521 0.293945 146.322 0.496113 146.142 0.689092H152.132L152.044 0.565034C151.925 0.395029 151.732 0.293945 151.525 0.293945H151.523Z" fill="black"/>
<path d="M143.291 0.565034C143.172 0.395029 142.979 0.293945 142.772 0.293945C141.616 0.293945 137.828 0.293945 137.828 0.293945C137.771 0.293945 137.571 0.496113 137.392 0.689092H143.381L143.294 0.565034H143.291Z" fill="black"/>
<path d="M76.9709 49.6896L77.0674 49.5977H73.511C72.9459 49.832 72.3876 50.064 71.8569 50.2869H76.771V50.1513C76.771 49.9767 76.8422 49.809 76.9709 49.6896Z" fill="black"/>
<path d="M68.2179 49.6896L68.3144 49.5977H57.7649V50.2869H68.018V50.1513C68.018 49.9767 68.0893 49.809 68.2179 49.6896Z" fill="black"/>
<path d="M79.8174 46.9995C79.544 47.1098 79.0777 47.3005 78.4803 47.5463H79.2385L79.8174 46.9995Z" fill="black"/>
<path d="M57.7649 46.8569V47.5461H70.4877L71.216 46.8569H57.7649Z" fill="black"/>
<path d="M57.7649 44.1143V44.8035H73.3847C73.6282 44.5737 73.8694 44.344 74.1129 44.1143H57.7672H57.7649Z" fill="black"/>
<path d="M76.9387 41.5044H57.7649V42.1936H76.1392C76.3161 42.0259 76.4953 41.8582 76.6722 41.6882C76.7549 41.6078 76.8445 41.548 76.9387 41.5044Z" fill="black"/>
<path d="M137.387 11.1127H138.467C138.06 10.9794 137.605 10.8944 137.387 11.1127Z" fill="#333333"/>
<path d="M114.889 10.2168C110.977 10.3477 97.4612 10.8026 96.8225 10.86C96.3975 10.8968 95.9679 11.0025 95.5452 11.115H118.907C118.252 10.8945 117.542 10.6716 116.98 10.497C116.302 10.288 115.597 10.1938 114.887 10.2168H114.889Z" fill="#333333"/>
<path d="M130.929 20.1367H113.573C113.097 20.6743 112.796 21.0097 112.789 21.0166C112.369 21.3428 111.969 21.692 111.588 22.0596H129.266C129.79 21.4531 130.355 20.803 130.931 20.1367H130.929Z" fill="#333333"/>
<path d="M112.111 39.4141H100.383C100.156 39.6897 99.979 39.9011 99.8825 40.0206C99.6942 40.248 99.6436 40.3652 99.3702 40.418C99.1152 40.4663 93.0387 39.9126 88.2165 40.9211C87.1804 41.1118 79.135 41.3944 78.3907 41.3944C77.8968 41.3944 77.373 41.2956 76.9434 41.5047H108.787L112.116 39.4164L112.111 39.4141Z" fill="#333333"/>
<path d="M116.538 36.6362H102.681C102.06 37.3875 101.452 38.1226 100.953 38.7245H113.21L116.538 36.6362Z" fill="#333333"/>
<path d="M68.0204 50.951C68.0204 51.4082 68.489 51.7161 68.9072 51.5346C69.6102 51.2313 70.6669 50.7833 71.857 50.2871H68.0204V50.951Z" fill="#333333"/>
<path d="M126.371 38.7245H141.219C141.021 37.9825 140.861 37.3691 140.746 36.9303C140.718 36.8292 140.684 36.7304 140.642 36.6362H119.362C120.984 37.1187 123.702 37.9296 126.373 38.7245H126.371Z" fill="#333333"/>
<path d="M135.227 46.8572H143.372C143.188 46.1657 143.006 45.4788 142.827 44.8057H134.738C134.89 45.5362 135.06 46.2576 135.225 46.8572H135.227Z" fill="#333333"/>
<path d="M128.669 22.7485H110.912C110.315 23.3987 109.773 24.0971 109.295 24.8368H126.867C127.299 24.3337 127.929 23.6032 128.669 22.7485Z" fill="#333333"/>
<path d="M134.341 42.4441C134.4 42.9426 134.495 43.5193 134.605 44.1143H142.646C142.471 43.4527 142.299 42.8094 142.136 42.1914H134.29C134.311 42.2741 134.329 42.3568 134.341 42.4441Z" fill="#333333"/>
<path d="M132.827 40.65C133.312 40.7948 133.714 41.1026 133.985 41.5024H141.954C141.754 40.7488 141.568 40.0458 141.401 39.4141H128.682C130.33 39.9057 131.816 40.3491 132.825 40.65H132.827Z" fill="#333333"/>
<path d="M135.694 48.1988C135.931 48.6353 136.199 49.1224 136.473 49.5979H144.098C143.918 48.9202 143.737 48.2333 143.553 47.5464H135.432C135.526 47.829 135.613 48.0541 135.692 48.1988H135.694Z" fill="#333333"/>
<path d="M96.8225 10.8577C97.4611 10.8026 110.977 10.3477 114.889 10.2144C115.599 10.1915 116.302 10.2857 116.982 10.4947C117.542 10.667 118.255 10.8922 118.909 11.1127H137.389C137.608 10.8945 138.062 10.9795 138.469 11.1127H141.938C142.506 10.5453 143.17 9.87214 143.395 9.58957C143.523 9.42645 143.719 9.23118 143.893 9.02441H92.8549C91.9038 9.67457 90.6058 10.6395 89.9901 11.1127H95.5474C95.9702 11.0001 96.3975 10.8945 96.8248 10.8577H96.8225Z" fill="#333333"/>
<path d="M126.631 26.3741C126.224 26.0869 126.192 26.0525 126.245 25.5769C126.245 25.5746 126.259 25.5562 126.282 25.5264H108.872C108.488 26.1949 108.155 26.8933 107.873 27.6147H128.386C127.616 27.0725 127.001 26.6383 126.626 26.3741H126.631Z" fill="#333333"/>
<path d="M145.189 5.27253C145.538 4.73035 145.442 4.05952 145.198 3.4668H136.114C135.875 3.84127 135.551 4.1629 135.186 4.37426C134.793 4.60399 134.403 4.70737 134.008 4.73494C133.353 4.78089 132.687 4.62237 131.965 4.49602C131.368 4.39264 130.775 4.27317 130.18 4.15141C129.401 3.99289 128.607 3.91708 127.812 3.91938C126.957 3.92397 126.19 3.91249 125.333 3.93316C124.51 3.95384 123.189 4.16979 122.401 4.40872C121.326 4.73494 118.675 5.2932 117.395 5.5551H144.984C145.06 5.45402 145.129 5.35753 145.184 5.27253H145.189Z" fill="#333333"/>
<path d="M133.311 31.0815H106.703C106.526 31.649 106.334 32.205 105.954 32.6713C105.886 32.7563 105.741 32.9309 105.543 33.1721H136.275C135.338 32.5128 134.325 31.7983 133.311 31.0838V31.0815Z" fill="#333333"/>
<path d="M129.369 28.3037H107.627C107.324 29.202 107.057 29.9946 106.922 30.392H132.333C131.283 29.6523 130.263 28.9332 129.369 28.3037Z" fill="#333333"/>
<path d="M137.148 12.9115C137.261 12.776 137.286 12.2338 137.291 11.8042H120.676C120.761 11.8547 120.802 11.8961 120.789 11.9237C120.768 11.9696 120.063 12.7783 119.084 13.8925H136.317C136.673 13.4767 136.957 13.139 137.146 12.9115H137.148Z" fill="#333333"/>
<path d="M144.732 2.61924C144.495 2.28382 144.261 1.94611 144.024 1.6107L143.379 0.689453H137.389C137.249 0.841079 137.121 0.985813 137.077 1.02487C136.673 1.41542 136.56 1.65205 136.537 2.19882C136.53 2.3941 136.491 2.58708 136.434 2.77776H144.837C144.803 2.72262 144.766 2.66978 144.732 2.61924Z" fill="#333333"/>
<path d="M140.507 11.8362C140.727 11.9143 140.964 11.8982 141.166 11.8018H140.406C140.44 11.8132 140.475 11.8247 140.505 11.8362H140.507Z" fill="#333333"/>
<path d="M139.907 35.7266C139.324 35.3154 138.38 34.6492 137.254 33.8589H104.976C104.491 34.447 103.882 35.1845 103.25 35.9472H140.171C140.091 35.8668 140.004 35.7933 139.907 35.7266Z" fill="#333333"/>
<path d="M144.293 8.3234C144.362 7.90987 144.263 7.40905 144.245 6.99093C144.235 6.7543 144.346 6.49929 144.5 6.24658H112.467C110.788 6.46483 109.077 6.68997 108.339 6.79565C107.023 6.98404 101.279 8.11434 100.487 8.14191C99.6505 8.16948 98.8142 8.19704 97.978 8.22691C97.3439 8.24759 95.807 8.30272 94.8099 8.33718H144.288C144.288 8.33718 144.291 8.33029 144.291 8.3257L144.293 8.3234Z" fill="#333333"/>
<path d="M147.973 59.5574C147.436 59.3391 146.981 58.9715 146.655 58.5098H140.498C140.766 59.2197 141.031 59.918 141.276 60.5613H150.466C149.655 60.2397 148.722 59.8606 147.973 59.5574Z" fill="#333333"/>
<path d="M78.4803 47.5464H70.4878L68.3168 49.5979H73.5134C75.326 48.8444 77.1984 48.0725 78.4803 47.5464Z" fill="#333333"/>
<path d="M156.076 63.155L155.961 62.753C155.952 62.7185 155.936 62.6817 155.908 62.6565C155.75 62.5094 155.378 62.4198 155.196 62.3417C154.231 61.9351 153.239 61.6089 152.256 61.2505H141.543C141.871 62.1005 142.154 62.8196 142.359 63.302H156.099C156.099 63.2538 156.09 63.2032 156.076 63.1527V63.155Z" fill="#333333"/>
<path d="M146.207 57.5513C146.076 57.0574 145.915 56.4555 145.733 55.7686H139.455C139.71 56.4325 139.974 57.1263 140.238 57.8201H146.296C146.264 57.7328 146.232 57.6432 146.209 57.5513H146.207Z" fill="#333333"/>
<path d="M145.007 53.0278H138.373C138.612 53.6091 138.892 54.3121 139.188 55.0794H145.552C145.384 54.4453 145.2 53.7561 145.007 53.0278Z" fill="#333333"/>
<path d="M144.281 50.2871H136.877C137.155 50.7512 137.426 51.1762 137.658 51.4978C137.75 51.6242 137.895 51.9205 138.079 52.3387H144.824C144.649 51.677 144.465 50.9901 144.279 50.2871H144.281Z" fill="#333333"/>
<path d="M133.335 17.3569H116.031C115.358 18.1197 114.717 18.8433 114.184 19.4452H131.527C132.133 18.7445 132.746 18.037 133.335 17.3569Z" fill="#333333"/>
<path d="M97.4956 46.3958C99.5954 46.3682 101.652 45.8168 103.485 44.8037H73.3871C73.2401 44.9439 73.093 45.0817 72.946 45.2218L71.2184 46.8553H80.27C81.8805 46.6347 91.9912 46.4693 97.4979 46.3958H97.4956Z" fill="#333333"/>
<path d="M107.684 42.1938H76.1416C75.4662 42.8348 74.7908 43.4758 74.113 44.1167H104.622L107.687 42.1938H107.684Z" fill="#333333"/>
<path d="M135.728 14.5791H118.48C117.903 15.2361 117.269 15.9529 116.637 16.6674H133.927C134.589 15.9024 135.202 15.1879 135.726 14.5791H135.728Z" fill="#333333"/>
<path d="M123.64 10.2168C119.727 10.3477 106.212 10.8026 105.573 10.86C105.148 10.8968 104.718 11.0025 104.296 11.115H127.658C127.003 10.8945 126.293 10.6716 125.73 10.497C125.052 10.288 124.347 10.1938 123.637 10.2168H123.64Z" fill="#1A1A1A"/>
<path d="M146.138 11.1127H147.217C146.811 10.9794 146.356 10.8944 146.138 11.1127Z" fill="#1A1A1A"/>
<path d="M148.658 35.7266C148.074 35.3154 147.13 34.6492 146.005 33.8589H113.727C113.242 34.447 112.633 35.1845 112.001 35.9472H148.922C148.842 35.8668 148.754 35.7933 148.658 35.7266Z" fill="#1A1A1A"/>
<path d="M143.981 46.8572H152.125C151.941 46.1657 151.759 45.4788 151.58 44.8057H143.491C143.643 45.5362 143.813 46.2576 143.978 46.8572H143.981Z" fill="#1A1A1A"/>
<path d="M144.445 48.1988C144.681 48.6353 144.95 49.1224 145.223 49.5979H152.848C152.669 48.9202 152.488 48.2333 152.304 47.5464H144.183C144.277 47.829 144.364 48.0541 144.442 48.1988H144.445Z" fill="#1A1A1A"/>
<path d="M141.577 40.65C142.062 40.7948 142.464 41.1026 142.735 41.5024H150.705C150.505 40.7488 150.319 40.0458 150.151 39.4141H137.433C139.08 39.9057 140.567 40.3491 141.575 40.65H141.577Z" fill="#1A1A1A"/>
<path d="M135.124 38.7245H149.972C149.774 37.9825 149.614 37.3691 149.499 36.9303C149.471 36.8292 149.437 36.7304 149.395 36.6362H128.115C129.737 37.1187 132.455 37.9296 135.126 38.7245H135.124Z" fill="#1A1A1A"/>
<path d="M143.091 42.4441C143.151 42.9426 143.245 43.5193 143.356 44.1143H151.396C151.222 43.4527 151.05 42.8094 150.886 42.1914H143.041C143.062 42.2741 143.08 42.3568 143.091 42.4441Z" fill="#1A1A1A"/>
<path d="M142.062 31.0815H115.454C115.277 31.649 115.084 32.205 114.705 32.6713C114.636 32.7563 114.492 32.9309 114.294 33.1721H145.026C144.088 32.5128 143.075 31.7983 142.062 31.0838V31.0815Z" fill="#1A1A1A"/>
<path d="M76.7711 50.951C76.7711 51.4082 77.2398 51.7161 77.6579 51.5346C78.3609 51.2313 79.4177 50.7833 80.6077 50.2871H76.7711V50.951Z" fill="#1A1A1A"/>
<path d="M153.044 8.3234C153.113 7.90987 153.014 7.40905 152.995 6.99093C152.986 6.7543 153.096 6.49929 153.25 6.24658H121.218C119.539 6.46483 117.827 6.68997 117.09 6.79565C115.773 6.98404 110.03 8.11434 109.237 8.14191C108.401 8.16948 107.565 8.19704 106.729 8.22691C106.095 8.24759 104.558 8.30272 103.561 8.33718H153.039C153.039 8.33718 153.041 8.33029 153.041 8.3257L153.044 8.3234Z" fill="#1A1A1A"/>
<path d="M149.258 11.8362C149.478 11.9143 149.715 11.8982 149.917 11.8018H149.156C149.191 11.8132 149.225 11.8247 149.255 11.8362H149.258Z" fill="#1A1A1A"/>
<path d="M153.94 5.27253C154.289 4.73035 154.192 4.05952 153.949 3.4668H144.865C144.626 3.84127 144.302 4.1629 143.937 4.37426C143.544 4.60399 143.153 4.70737 142.758 4.73494C142.103 4.78089 141.437 4.62237 140.716 4.49602C140.119 4.39264 139.526 4.27317 138.931 4.15141C138.152 3.99289 137.357 3.91708 136.562 3.91938C135.708 3.92397 134.94 3.91249 134.083 3.93316C133.261 3.95384 131.94 4.16979 131.152 4.40872C130.077 4.73494 127.426 5.2932 126.146 5.5551H153.735C153.811 5.45402 153.88 5.35753 153.935 5.27253H153.94Z" fill="#1A1A1A"/>
<path d="M125.289 36.6362H111.431C110.811 37.3875 110.202 38.1226 109.704 38.7245H121.96L125.289 36.6362Z" fill="#1A1A1A"/>
<path d="M153.482 2.61924C153.246 2.28382 153.011 1.94611 152.775 1.6107L152.129 0.689453H146.14C146 0.841079 145.871 0.985813 145.828 1.02487C145.423 1.41542 145.311 1.65205 145.288 2.19882C145.281 2.3941 145.242 2.58708 145.184 2.77776H153.588C153.554 2.72262 153.517 2.66978 153.482 2.61924Z" fill="#1A1A1A"/>
<path d="M105.573 10.8577C106.212 10.8026 119.727 10.3477 123.64 10.2144C124.349 10.1915 125.052 10.2857 125.732 10.4947C126.293 10.667 127.005 10.8922 127.66 11.1127H146.14C146.358 10.8945 146.813 10.9795 147.22 11.1127H150.689C151.256 10.5453 151.92 9.87214 152.145 9.58957C152.274 9.42645 152.469 9.23118 152.644 9.02441H101.606C100.654 9.67457 99.3564 10.6395 98.7407 11.1127H104.298C104.721 11.0001 105.148 10.8945 105.575 10.8577H105.573Z" fill="#1A1A1A"/>
<path d="M142.085 17.3569H124.781C124.108 18.1197 123.467 18.8433 122.934 19.4452H140.277C140.884 18.7445 141.497 18.037 142.085 17.3569Z" fill="#1A1A1A"/>
<path d="M137.419 22.7485H119.663C119.066 23.3987 118.523 24.0971 118.046 24.8368H135.618C136.05 24.3337 136.679 23.6032 137.419 22.7485Z" fill="#1A1A1A"/>
<path d="M135.384 26.3741C134.977 26.0869 134.945 26.0525 134.998 25.5769C134.998 25.5746 135.012 25.5562 135.035 25.5264H117.625C117.241 26.1949 116.908 26.8933 116.626 27.6147H137.139C136.369 27.0725 135.754 26.6383 135.379 26.3741H135.384Z" fill="#1A1A1A"/>
<path d="M138.12 28.3037H116.378C116.074 29.202 115.808 29.9946 115.672 30.392H141.084C140.034 29.6523 139.014 28.9332 138.12 28.3037Z" fill="#1A1A1A"/>
<path d="M145.899 12.9115C146.011 12.776 146.037 12.2338 146.041 11.8042H129.427C129.512 11.8547 129.553 11.8961 129.539 11.9237C129.519 11.9696 128.813 12.7783 127.835 13.8925H145.067C145.423 13.4767 145.708 13.139 145.896 12.9115H145.899Z" fill="#1A1A1A"/>
<path d="M139.68 20.1367H122.323C121.848 20.6743 121.547 21.0097 121.54 21.0166C121.119 21.3428 120.72 21.692 120.338 22.0596H138.016C138.54 21.4531 139.105 20.803 139.682 20.1367H139.68Z" fill="#1A1A1A"/>
<path d="M144.479 14.5791H127.23C126.654 15.2361 126.02 15.9529 125.388 16.6674H142.678C143.34 15.9024 143.953 15.1879 144.477 14.5791H144.479Z" fill="#1A1A1A"/>
<path d="M116.437 42.1938H84.8945C84.2191 42.8348 83.5437 43.4758 82.866 44.1167H113.375L116.44 42.1938H116.437Z" fill="#1A1A1A"/>
<path d="M153.032 50.2871H145.628C145.906 50.7512 146.177 51.1762 146.409 51.4978C146.501 51.6242 146.645 51.9205 146.829 52.3387H153.574C153.4 51.677 153.216 50.9901 153.03 50.2871H153.032Z" fill="#1A1A1A"/>
<path d="M164.829 63.155L164.714 62.753C164.705 62.7185 164.689 62.6817 164.661 62.6565C164.503 62.5094 164.131 62.4198 163.949 62.3417C162.984 61.9351 161.992 61.6089 161.009 61.2505H150.296C150.624 62.1005 150.907 62.8196 151.111 63.302H163.163V63.9568H164.225C164.643 63.9568 164.946 63.5547 164.829 63.1527V63.155Z" fill="#1A1A1A"/>
<path d="M87.2309 47.5464H79.2384L77.0674 49.5979H82.264C84.0767 48.8444 85.949 48.0725 87.2309 47.5464Z" fill="#1A1A1A"/>
<path d="M106.246 46.3958C108.346 46.3682 110.402 45.8168 112.235 44.8037H82.1377C81.9907 44.9439 81.8436 45.0817 81.6966 45.2218L79.969 46.8553H89.0206C90.6311 46.6347 100.742 46.4693 106.249 46.3958H106.246Z" fill="#1A1A1A"/>
<path d="M153.76 53.0278H147.126C147.365 53.6091 147.645 54.3121 147.941 55.0794H154.305C154.137 54.4453 153.953 53.7561 153.76 53.0278Z" fill="#1A1A1A"/>
<path d="M120.862 39.4141H109.134C108.907 39.6897 108.73 39.9011 108.633 40.0206C108.445 40.248 108.394 40.3652 108.121 40.418C107.866 40.4663 101.789 39.9126 96.9671 40.9211C95.931 41.1118 87.8857 41.3944 87.1413 41.3944C86.6474 41.3944 86.1236 41.2956 85.694 41.5047H117.538L120.867 39.4164L120.862 39.4141Z" fill="#1A1A1A"/>
<path d="M156.726 59.5574C156.189 59.3391 155.734 58.9715 155.408 58.5098H149.251C149.519 59.2197 149.784 59.918 150.029 60.5613H159.219C158.408 60.2397 157.475 59.8606 156.726 59.5574Z" fill="#1A1A1A"/>
<path d="M154.96 57.5513C154.829 57.0574 154.668 56.4555 154.486 55.7686H148.208C148.463 56.4325 148.727 57.1263 148.991 57.8201H155.049C155.017 57.7328 154.985 57.6432 154.962 57.5513H154.96Z" fill="#1A1A1A"/>
<path d="M152.088 4.73475C152.483 4.70718 152.871 4.6038 153.266 4.37407C154.006 3.94216 154.581 3.06686 154.615 2.19846C154.638 1.65169 154.748 1.41506 155.155 1.02451C155.249 0.932612 155.803 0.293945 155.904 0.293945C155.904 0.293945 159.692 0.293945 160.848 0.293945C161.055 0.293945 161.248 0.395029 161.367 0.565034L162.1 1.61034C162.336 1.94575 162.571 2.28346 162.807 2.61888C163.292 3.30809 163.798 4.44069 163.265 5.27234C162.973 5.72951 162.297 6.42332 162.32 6.99076C162.339 7.40889 162.435 7.90971 162.369 8.32324C162.295 8.76663 161.739 9.24678 161.468 9.58679C161.167 9.96585 160.076 11.0525 159.483 11.636C159.247 11.8704 158.897 11.9462 158.583 11.8359C158.167 11.6889 157.59 11.4867 157.225 11.3649C156.85 11.2386 155.624 10.639 155.373 11.2409C155.355 11.2868 155.415 12.6813 155.224 12.9111C153.544 14.9328 144.332 25.496 144.323 25.5764C144.27 26.052 144.3 26.0865 144.706 26.3736C146.689 27.775 155.52 33.994 157.981 35.7285C158.394 36.0203 158.688 36.4453 158.819 36.9323C159.681 40.1969 163.124 53.1862 164.282 57.5535C164.524 58.4632 165.176 59.2053 166.049 59.5591C167.28 60.0599 169.013 60.7583 169.87 61.0845C171 61.5141 172.155 61.8748 173.27 62.3435C173.453 62.4193 173.823 62.5112 173.982 62.6582C174.009 62.6835 174.025 62.718 174.035 62.7547L174.15 63.1567C174.264 63.5588 173.963 63.9608 173.545 63.9608C170.901 63.9608 162.798 63.9608 160.77 63.9608C160.492 63.9608 156.46 52.5062 155.734 51.4999C155.159 50.705 154.362 49.299 153.767 48.2009C153.351 47.4313 152.646 44.3643 152.414 42.4483C152.311 41.6006 151.718 40.8976 150.9 40.6541C147.1 39.5215 136.576 36.3833 135.974 36.2064C135.954 36.1995 135.91 36.1834 135.857 36.1627C135.669 36.0892 135.455 36.1099 135.285 36.2201L122.165 44.4539C120.187 45.6945 117.905 46.3699 115.571 46.3998C109.752 46.4779 98.7844 46.6594 98.1527 46.8983C97.8632 47.0086 89.7213 50.3535 86.9852 51.539C86.5648 51.7205 86.0984 51.4126 86.0984 50.9554V50.156C86.0984 49.9814 86.1696 49.8137 86.2983 49.6942L91.0239 45.2258C92.2691 44.0496 93.5143 42.8733 94.7526 41.6925C95.2166 41.2491 95.8668 41.3961 96.4664 41.3961C97.213 41.3961 105.258 41.1158 106.292 40.9229C111.112 39.9166 117.191 40.468 117.446 40.4197C117.719 40.3692 117.77 40.252 117.958 40.0223C118.673 39.1585 123.509 33.3117 124.03 32.673C124.552 32.0343 124.724 31.2096 124.988 30.4239C125.121 30.0287 125.399 29.2017 125.716 28.2667C126.686 25.3996 128.476 22.8793 130.865 21.0208C130.904 20.9863 138.793 12.0794 138.867 11.9278C138.958 11.7348 136.509 10.9491 135.058 10.5011C134.38 10.2921 133.675 10.1979 132.965 10.2209C129.052 10.3518 115.537 10.8067 114.898 10.8641C114.259 10.9216 113.6 11.1329 112.975 11.2891C112.121 11.4591 111.307 11.6728 110.434 11.7164C109.405 11.767 108.383 11.7164 107.354 11.7164C107.439 11.7164 107.678 11.4316 107.737 11.3764C108.059 11.0916 111.686 8.38067 112.036 8.36689C112.481 8.35081 115.162 8.25891 116.056 8.22675C116.892 8.19918 117.729 8.16931 118.565 8.14175C119.357 8.11418 125.101 6.98617 126.417 6.79549C127.908 6.58183 133.357 5.88114 134.534 5.73181C134.685 5.71113 134.835 5.68816 134.986 5.656C135.891 5.47221 139.239 4.78529 140.482 4.40853C141.27 4.1696 142.591 3.95365 143.413 3.93297C144.236 3.9123 145.037 3.92378 145.892 3.91919C146.687 3.91459 147.482 3.9927 148.261 4.15122C148.856 4.27068 149.448 4.39245 150.046 4.49583C150.767 4.62218 151.433 4.7807 152.088 4.73475Z" fill="black"/>
<path d="M18.4157 9.77541C18.7488 12.9573 18.0872 15.4798 16.4331 17.3475C14.779 19.2153 12.6102 20.148 9.92921 20.148C7.24819 20.148 4.9692 19.2107 2.98198 17.3337C0.994759 15.4568 0 13.0951 0 10.2464C0 7.39764 0.994759 5.03595 2.98198 3.159C4.9692 1.28205 7.28495 0.344727 9.92921 0.344727C11.3352 0.344727 12.6056 0.604329 13.7428 1.12124C14.88 1.63814 15.8105 2.31357 16.5295 3.14521L14.2552 5.64245C13.8118 5.12554 13.2053 4.70053 12.4379 4.36741C11.6706 4.0343 10.8344 3.86888 9.92692 3.86888C8.31876 3.86888 6.92656 4.47998 5.7526 5.69988C4.57865 6.91979 3.99052 8.42686 3.99052 10.2211C3.99052 12.0153 4.58324 13.5316 5.76639 14.7699C6.94953 16.0082 8.33714 16.6285 9.92692 16.6285C11.2778 16.6285 12.3897 16.2815 13.2696 15.5877C14.1472 14.8939 14.6985 13.8923 14.9191 12.5782H11.3122V9.77771H18.4134L18.4157 9.77541Z" fill="black"/>
<path d="M35.8619 19.9551H31.8668L27.2077 12.7988H25.0712V19.9551H21.4092V0.540039H28.0945C30.277 0.540039 32.0046 1.11438 33.282 2.26077C34.557 3.40715 35.1957 4.87746 35.1957 6.67171C35.1957 8.04094 34.812 9.23327 34.0447 10.251C33.2774 11.2687 32.1999 11.9901 30.8123 12.4151L35.8596 19.9597L35.8619 19.9551ZM25.0712 3.75635V9.5526H27.9567C29.0663 9.5526 29.9393 9.30219 30.578 8.80366C31.2166 8.30513 31.536 7.59295 31.536 6.66711C31.536 5.74127 31.2166 5.02679 30.578 4.51678C29.9393 4.00906 29.0663 3.75405 27.9567 3.75405H25.0712V3.75635Z" fill="black"/>
<path d="M42.2417 16.7663H51.1738V19.9551H38.4969V0.540039H50.8958V3.72878H42.2417V8.80366H48.1229V11.9924H42.2417V16.764V16.7663Z" fill="black"/>
<path d="M67.816 19.9549L66.0677 16.0999H58.3003L56.552 19.9549H52.5569L61.8773 0.537598H62.4608L71.7812 19.9549H67.8137H67.816ZM59.6603 13.0766H64.7077L62.1828 7.50091L59.658 13.0766H59.6603Z" fill="black"/>
<path d="M83.7091 0.539895V3.7585H78.7996V19.9572H74.917V3.75621H70.0076V0.537598H83.7091V0.539895Z" fill="black"/>
<path d="M15.2821 41.1849H11.287L6.6279 34.0286H4.49135V41.1849H0.829346V21.7676H7.51468C9.69718 21.7676 11.4248 22.3419 12.7021 23.4883C13.9772 24.6347 14.6158 26.105 14.6158 27.8992C14.6158 29.2685 14.2322 30.4608 13.4649 31.4762C12.6975 32.494 11.6201 33.2154 10.2325 33.6404L15.2798 41.1849H15.2821ZM4.49135 24.9862V30.7824H7.37684C8.48646 30.7824 9.35946 30.532 9.99813 30.0335C10.6368 29.535 10.9561 28.8228 10.9561 27.8969C10.9561 26.9711 10.6368 26.2566 9.99813 25.7466C9.35946 25.2389 8.48646 24.9839 7.37684 24.9839H4.49135V24.9862Z" fill="black"/>
<path d="M22.0202 21.7676V41.1849H18.3031V21.7676H22.0202Z" fill="black"/>
<path d="M37.7756 24.9586H29.149V30.0059H36.4707V33.2521H29.149V41.1849H25.4319V21.7676H37.7756V24.9563V24.9586Z" fill="black"/>
<path d="M53.9467 21.7676V24.9862H49.0373V41.1849H45.1547V24.9862H40.2452V21.7676H53.9467Z" fill="black"/>
<path d="M15.2821 63.8047H11.287L6.6279 56.6484H4.49135V63.8047H0.829346V44.3896H7.51468C9.69718 44.3896 11.4248 44.964 12.7021 46.1104C13.9772 47.2568 14.6158 48.7271 14.6158 50.5213C14.6158 51.8905 14.2322 53.0829 13.4649 54.0983C12.6975 55.116 11.6201 55.8374 10.2325 56.2624L15.2798 63.807L15.2821 63.8047ZM4.49135 47.606V53.4022H7.37684C8.48646 53.4022 9.35946 53.1518 9.99813 52.6533C10.6368 52.1547 10.9561 51.4426 10.9561 50.5167C10.9561 49.5909 10.6368 48.8764 9.99813 48.3664C9.35946 47.8587 8.48646 47.6037 7.37684 47.6037H4.49135V47.606Z" fill="black"/>
<path d="M33.7552 44.3896V56.7058C33.7552 58.9067 32.9971 60.6711 31.4808 62.0035C29.9646 63.3337 28.1336 64 25.9878 64C23.8421 64 21.9835 63.3337 20.4673 62.0035C18.951 60.6711 18.1929 58.9067 18.1929 56.7058V44.3896H21.7423V56.7058C21.7423 58.1118 22.1627 59.1663 23.0036 59.867C23.8444 60.57 24.8391 60.9215 25.9855 60.9215C27.1319 60.9215 28.1221 60.57 28.9537 59.867C29.7854 59.164 30.2012 58.1095 30.2012 56.7058V44.3896H33.7529H33.7552Z" fill="black"/>
<path d="M53.115 44.3896V63.8047H49.6483L41.1596 50.7396V63.8047H37.4976V44.3896H40.9643L49.453 57.4272V44.3896H53.115Z" fill="black"/>
</svg>
