<svg width="40" height="40" viewBox="0 0 40 40" fill="none" xmlns="http://www.w3.org/2000/svg">
<path d="M7.27145 35.3924V33.3343C7.27145 32.5454 6.79124 32.0309 5.96802 32.0309C5.55641 32.0309 5.1105 32.1681 4.8018 32.614C4.56169 32.2367 4.21868 32.0309 3.70417 32.0309C3.36117 32.0309 3.01816 32.1338 2.74375 32.5111V32.0995H2.02344V35.3924H2.74375V33.5745C2.74375 32.9913 3.05246 32.7169 3.53267 32.7169C4.01288 32.7169 4.25299 33.0256 4.25299 33.5745V35.3924H4.9733V33.5745C4.9733 32.9913 5.31631 32.7169 5.76222 32.7169C6.24243 32.7169 6.48253 33.0256 6.48253 33.5745V35.3924H7.27145ZM17.939 32.0995H16.7728V31.1048H16.0524V32.0995H15.4007V32.7512H16.0524V34.2605C16.0524 35.0151 16.3611 35.461 17.1844 35.461C17.4931 35.461 17.8361 35.3581 18.0762 35.2209L17.8704 34.6035C17.6646 34.7407 17.4245 34.775 17.253 34.775C16.91 34.775 16.7728 34.5692 16.7728 34.2262V32.7512H17.939V32.0995ZM24.0445 32.0309C23.6329 32.0309 23.3585 32.2367 23.187 32.5111V32.0995H22.4667V35.3924H23.187V33.5402C23.187 32.9913 23.4271 32.6826 23.873 32.6826C24.0102 32.6826 24.1817 32.7169 24.3189 32.7512L24.5247 32.0652C24.3875 32.0309 24.1817 32.0309 24.0445 32.0309ZM14.8176 32.3739C14.4746 32.1338 13.9944 32.0309 13.4799 32.0309C12.6567 32.0309 12.1079 32.4425 12.1079 33.0942C12.1079 33.6431 12.5195 33.9518 13.2398 34.0547L13.5828 34.089C13.9601 34.1576 14.1659 34.2605 14.1659 34.432C14.1659 34.6721 13.8915 34.8436 13.4113 34.8436C12.9311 34.8436 12.5538 34.6721 12.3137 34.5006L11.9707 35.0494C12.348 35.3238 12.8625 35.461 13.377 35.461C14.3374 35.461 14.8862 35.0151 14.8862 34.3977C14.8862 33.8146 14.4403 33.5058 13.7543 33.4029L13.4113 33.3686C13.1026 33.3343 12.8625 33.2657 12.8625 33.0599C12.8625 32.8198 13.1026 32.6826 13.4799 32.6826C13.8915 32.6826 14.3031 32.8541 14.5089 32.957L14.8176 32.3739ZM33.9574 32.0309C33.5458 32.0309 33.2714 32.2367 33.0999 32.5111V32.0995H32.3796V35.3924H33.0999V33.5402C33.0999 32.9913 33.34 32.6826 33.7859 32.6826C33.9231 32.6826 34.0946 32.7169 34.2318 32.7512L34.4376 32.0652C34.3004 32.0309 34.0946 32.0309 33.9574 32.0309ZM24.7648 33.746C24.7648 34.7407 25.4508 35.461 26.5142 35.461C26.9944 35.461 27.3374 35.3581 27.6804 35.0837L27.3374 34.5006C27.063 34.7064 26.7886 34.8093 26.4799 34.8093C25.8968 34.8093 25.4851 34.3977 25.4851 33.746C25.4851 33.1285 25.8968 32.7169 26.4799 32.6826C26.7886 32.6826 27.063 32.7855 27.3374 32.9913L27.6804 32.4082C27.3374 32.1338 26.9944 32.0309 26.5142 32.0309C25.4508 32.0309 24.7648 32.7512 24.7648 33.746ZM31.4192 33.746V32.0995H30.6989V32.5111C30.4588 32.2024 30.1157 32.0309 29.6698 32.0309C28.7437 32.0309 28.0234 32.7512 28.0234 33.746C28.0234 34.7407 28.7437 35.461 29.6698 35.461C30.15 35.461 30.4931 35.2895 30.6989 34.9808V35.3924H31.4192V33.746ZM28.778 33.746C28.778 33.1628 29.1553 32.6826 29.7727 32.6826C30.3559 32.6826 30.7675 33.1285 30.7675 33.746C30.7675 34.3291 30.3559 34.8093 29.7727 34.8093C29.1553 34.775 28.778 34.3291 28.778 33.746ZM20.1685 32.0309C19.2081 32.0309 18.5221 32.7169 18.5221 33.746C18.5221 34.775 19.2081 35.461 20.2028 35.461C20.683 35.461 21.1632 35.3238 21.5406 35.0151L21.1976 34.5006C20.9231 34.7064 20.5801 34.8436 20.2371 34.8436C19.7912 34.8436 19.3453 34.6378 19.2424 34.0547H21.6778V33.7803C21.7121 32.7169 21.0947 32.0309 20.1685 32.0309ZM20.1685 32.6483C20.6144 32.6483 20.9231 32.9227 20.9917 33.4372H19.2767C19.3453 32.9913 19.654 32.6483 20.1685 32.6483ZM38.0392 33.746V30.7961H37.3189V32.5111C37.0788 32.2024 36.7358 32.0309 36.2899 32.0309C35.3638 32.0309 34.6434 32.7512 34.6434 33.746C34.6434 34.7407 35.3638 35.461 36.2899 35.461C36.7701 35.461 37.1131 35.2895 37.3189 34.9808V35.3924H38.0392V33.746ZM35.3981 33.746C35.3981 33.1628 35.7754 32.6826 36.3928 32.6826C36.9759 32.6826 37.3875 33.1285 37.3875 33.746C37.3875 34.3291 36.9759 34.8093 36.3928 34.8093C35.7754 34.775 35.3981 34.3291 35.3981 33.746ZM11.3189 33.746V32.0995H10.5986V32.5111C10.3585 32.2024 10.0155 32.0309 9.5696 32.0309C8.64348 32.0309 7.92317 32.7512 7.92317 33.746C7.92317 34.7407 8.64348 35.461 9.5696 35.461C10.0498 35.461 10.3928 35.2895 10.5986 34.9808V35.3924H11.3189V33.746ZM8.64348 33.746C8.64348 33.1628 9.02079 32.6826 9.6382 32.6826C10.2213 32.6826 10.6329 33.1285 10.6329 33.746C10.6329 34.3291 10.2213 34.8093 9.6382 34.8093C9.02079 34.775 8.64348 34.3291 8.64348 33.746Z" fill="black"/>
<path d="M25.3829 7.09428H14.5781V26.5085H25.3829V7.09428Z" fill="#FF5F00"/>
<path d="M15.2638 16.8014C15.2638 12.8568 17.1161 9.35813 19.963 7.09428C17.8707 5.44785 15.2295 4.45312 12.3483 4.45312C5.52242 4.45312 0 9.97554 0 16.8014C0 23.6272 5.52242 29.1497 12.3483 29.1497C15.2295 29.1497 17.8707 28.1549 19.963 26.5085C17.1161 24.279 15.2638 20.746 15.2638 16.8014Z" fill="#EB001B"/>
<path d="M39.9601 16.8014C39.9601 23.6272 34.4377 29.1497 27.6118 29.1497C24.7306 29.1497 22.0894 28.1549 19.9971 26.5085C22.8783 24.2446 24.6963 20.746 24.6963 16.8014C24.6963 12.8568 22.844 9.35813 19.9971 7.09428C22.0894 5.44784 24.7306 4.45312 27.6118 4.45312C34.4377 4.45312 39.9601 10.0098 39.9601 16.8014Z" fill="#F79E1B"/>
</svg>
