<svg width="400" height="400" viewBox="0 0 400 400" fill="none" xmlns="http://www.w3.org/2000/svg">
<path d="M278.131 355.868C293.838 339.883 295.637 341.261 318.005 335.165C332.284 331.269 343.448 319.91 347.272 305.374C354.961 276.18 352.966 279.706 373.947 258.345C384.401 247.706 388.482 232.194 384.658 217.659C376.98 188.485 376.969 192.556 384.658 163.351C388.482 148.816 384.401 133.304 373.947 122.665C352.966 101.304 354.961 104.819 347.272 75.6356C343.448 61.1002 332.284 49.7413 318.005 45.8453C289.346 38.0225 292.8 40.0681 271.799 18.6968C261.344 8.05745 246.1 3.89421 231.821 7.79018C203.172 15.6027 207.171 15.613 178.47 7.79018C164.192 3.89421 148.947 8.04717 138.493 18.6968C117.512 40.0579 120.966 38.0225 92.2961 45.8453C78.0178 49.7413 66.8541 61.1002 63.0301 75.6356C55.3513 104.819 57.3352 101.304 36.3545 122.665C25.9002 133.304 21.8089 148.816 25.6432 163.351C33.3221 192.504 33.3323 188.434 25.6432 217.648C21.8192 232.184 25.9002 247.696 36.3545 258.345C57.3352 279.706 55.341 276.18 63.0301 305.374C66.8541 319.91 78.0178 331.269 92.2961 335.165C115.302 341.435 117.019 340.448 132.16 355.868C145.76 369.715 166.947 372.192 183.291 361.851C189.827 357.701 197.409 355.498 205.151 355.498C212.893 355.498 220.474 357.701 227.01 361.851C243.345 372.192 264.531 369.715 278.131 355.868ZM205.151 200C205.151 145.487 62.2327 200 115.789 200C169.346 200 178.947 145.487 178.947 200C178.947 254.513 258.708 105.263 205.151 105.263C151.594 105.263 205.151 254.513 205.151 200Z" fill="#14AE5C"/>
<g clip-path="url(#clip0_173_2)">
<path d="M298.6 140.449L282.919 124.768C279.197 121.046 273.178 121.046 269.495 124.768L174.659 219.604L130.547 175.453C126.825 171.731 120.806 171.731 117.124 175.453L101.403 191.173C97.6813 194.896 97.6813 200.914 101.403 204.637L167.927 271.2C171.65 274.922 177.668 274.922 181.351 271.2L298.56 153.912C302.282 150.15 302.282 144.131 298.6 140.449Z" fill="white"/>
</g>
<defs>
<clipPath id="clip0_173_2">
<rect width="202.74" height="153.425" fill="white" transform="translate(98.6304 120.548)"/>
</clipPath>
</defs>
</svg>
