<svg width="40" height="40" viewBox="0 0 40 40" fill="none" xmlns="http://www.w3.org/2000/svg">
<g clip-path="url(#clip0_213_916)">
<path d="M34 0H6C2.68629 0 0 2.68629 0 6V34C0 37.3137 2.68629 40 6 40H34C37.3137 40 40 37.3137 40 34V6C40 2.68629 37.3137 0 34 0Z" fill="white"/>
<path d="M29.4535 14.4375L14.1175 31.1719H8.49252C8.1019 31.1719 7.7894 30.7812 7.86752 30.3906L11.6175 6.64062C11.6956 6.09375 12.1644 5.70312 12.7113 5.70312H22.2425C28.805 5.9375 30.6019 9.29688 29.43 14.4531L29.4535 14.4375Z" fill="#002C8A"/>
<path d="M29.7035 12.8906C32.0472 14.1406 32.5941 16.4844 31.8128 19.6094C30.7972 24.2188 27.7503 26.1719 23.2972 26.25L22.0472 26.3281C21.5785 26.3281 21.266 26.6406 21.1878 27.1094L20.1722 33.2812C20.0941 33.8281 19.6253 34.2188 19.0785 34.2188H14.391C14.0003 34.2188 13.6878 33.8281 13.766 33.4375L15.4847 22.2656C15.5628 21.875 29.7035 12.8906 29.7035 12.8906Z" fill="#009BE1"/>
<path d="M15.3906 22.8125L16.9531 12.8906C17.0044 12.6556 17.1317 12.4441 17.3153 12.2888C17.4988 12.1334 17.7285 12.0429 17.9688 12.0312H25.4688C27.2656 12.0312 28.5938 12.3438 29.6875 12.8906C29.2969 16.3281 27.6562 21.875 19.6875 22.0312H16.25C15.8594 22.0312 15.4688 22.3438 15.3906 22.8125Z" fill="#001F6B"/>
</g>
<defs>
<clipPath id="clip0_213_916">
<rect width="40" height="40" fill="white"/>
</clipPath>
</defs>
</svg>
