<svg width="301" height="64" viewBox="0 0 301 64" fill="none" xmlns="http://www.w3.org/2000/svg">
<g clip-path="url(#clip0_132_66)">
<path d="M95.6705 25.6501V21.5598H89.3993V45.8941H95.6705V31.3029C95.6705 28.6607 97.3653 27.3627 100.008 27.3627H103.44V21.5599H100.508C98.2127 21.5598 96.2176 22.7576 95.6705 25.6501ZM109.314 11.9348C107.169 11.9348 105.524 13.6296 105.524 15.7748C105.524 17.87 107.169 19.5648 109.314 19.5648C111.46 19.5648 113.104 17.87 113.104 15.7748C113.104 13.6295 111.46 11.9348 109.314 11.9348ZM106.186 45.8942H112.443V21.5598H106.186V45.8942ZM142.247 33.7269C142.247 40.674 136.616 46.3054 129.669 46.3054C126.866 46.3054 124.324 45.3865 122.286 43.8347V53.0379H116.029V21.5598H122.286V23.6192C124.324 22.0675 126.866 21.1486 129.669 21.1486C136.616 21.1486 142.247 26.7799 142.247 33.7269ZM135.951 33.7269C135.951 29.9549 132.891 26.8943 129.119 26.8943C125.346 26.8943 122.286 29.9549 122.286 33.7269C122.286 37.4991 125.347 40.5596 129.119 40.5596C132.891 40.5596 135.951 37.5027 135.951 33.7269ZM250.998 31.5925L247.347 30.5913C244.944 29.9656 244.011 29.2291 244.011 27.9598C244.011 26.7227 245.327 25.8575 247.208 25.8575C248.999 25.8575 250.404 27.0302 250.404 28.5319V28.6712H256.171V28.5319C256.171 24.1161 252.571 21.1485 247.208 21.1485C241.898 21.1485 238.04 24.1126 238.04 28.1993C238.04 31.3778 240.146 33.7733 243.822 34.7673L247.318 35.7219C249.975 36.4585 250.962 37.2738 250.962 38.7361C250.962 40.2772 249.535 41.314 247.411 41.314C245.198 41.314 243.707 39.9123 243.707 37.8315V37.692H237.586V37.8315C237.586 42.8228 241.605 46.3124 247.361 46.3124C252.907 46.3124 256.933 42.9051 256.933 38.2141C256.933 35.9115 255.903 32.9011 250.998 31.5925ZM164.444 21.5598H170.701V45.8941H164.444V43.8346C162.406 45.3864 159.864 46.3053 157.06 46.3053C150.114 46.3053 144.482 40.674 144.482 33.7269C144.482 26.7798 150.114 21.1485 157.06 21.1485C159.864 21.1485 162.406 22.0674 164.444 23.6191V21.5598ZM164.444 33.7269C164.444 29.9513 161.383 26.8943 157.611 26.8943C153.839 26.8943 150.779 29.9549 150.779 33.7269C150.779 37.4991 153.839 40.5596 157.611 40.5596C161.387 40.5596 164.444 37.5027 164.444 33.7269ZM193.294 12.9002H199.551V45.8977H193.294V43.8382C191.256 45.39 188.714 46.3089 185.911 46.3089C178.964 46.3089 173.332 40.6776 173.332 33.7305C173.332 26.7833 178.963 21.1521 185.911 21.1521C188.714 21.1521 191.256 22.071 193.294 23.6227V12.9002ZM193.294 33.7269C193.294 29.9549 190.233 26.8943 186.461 26.8943C182.689 26.8943 179.629 29.9549 179.629 33.7269C179.629 37.4991 182.685 40.5596 186.461 40.5596C190.233 40.5596 193.294 37.5027 193.294 33.7269ZM228.601 45.8942H234.858V21.5598H228.601V45.8942ZM231.73 11.9348C229.584 11.9348 227.94 13.6296 227.94 15.7748C227.94 17.87 229.584 19.5648 231.73 19.5648C233.875 19.5648 235.52 17.87 235.52 15.7748C235.52 13.6295 233.875 11.9348 231.73 11.9348ZM283.977 33.7269C283.977 40.674 278.346 46.3054 271.399 46.3054C264.452 46.3054 258.821 40.6741 258.821 33.7269C258.821 26.7798 264.452 21.1486 271.399 21.1486C278.346 21.1486 283.977 26.7799 283.977 33.7269ZM278.232 33.7269C278.232 29.9549 275.171 26.8943 271.399 26.8943C267.627 26.8943 264.566 29.9549 264.566 33.7269C264.566 37.4991 267.623 40.5596 271.399 40.5596C275.171 40.5596 278.232 37.5027 278.232 33.7269ZM92.4669 12.9002H68.4651V18.4814H77.3501V45.8941H83.5856V18.4814H92.4706V12.9002H92.4669ZM213.849 39.2296L208.282 21.5599H201.71L210.059 45.8942H217.589L225.987 21.5599H219.416L213.849 39.2296ZM293.145 25.6501V21.5598H286.873V45.8941H293.145V31.3029C293.145 28.6607 294.839 27.3627 297.481 27.3627H300.914V21.5599H297.982C295.687 21.5598 293.695 22.7576 293.145 25.6501Z" fill="white"/>
<path d="M32.2748 64C49.9479 64 64.2748 49.6731 64.2748 32C64.2748 14.3269 49.9479 0 32.2748 0C14.6017 0 0.27478 14.3269 0.27478 32C0.27478 49.6731 14.6017 64 32.2748 64Z" fill="#34E0A1"/>
<path d="M52.0397 25.7573L55.9011 21.5561H47.338C43.0511 18.6278 37.8739 16.9224 32.2747 16.9224C26.6827 16.9224 21.5199 18.6315 17.2401 21.5561H8.65552L12.517 25.7573C10.1501 27.9168 8.66628 31.0275 8.66628 34.4813C8.66628 40.9993 13.9508 46.2838 20.4688 46.2838C23.5651 46.2838 26.3861 45.0896 28.492 43.1374L32.2748 47.2563L36.0576 43.141C38.1636 45.0932 40.9809 46.2838 44.0773 46.2838C50.5953 46.2838 55.8869 40.9993 55.8869 34.4813C55.8904 31.0239 54.4067 27.9133 52.0397 25.7573ZM20.4723 42.4688C16.0602 42.4688 12.4849 38.8935 12.4849 34.4813C12.4849 30.0692 16.0603 26.4938 20.4723 26.4938C24.8843 26.4938 28.4597 30.0692 28.4597 34.4813C28.4597 38.8935 24.8843 42.4688 20.4723 42.4688ZM32.2783 34.2489C32.2783 28.993 28.4562 24.4809 23.4113 22.5537C26.1393 21.4131 29.132 20.7802 32.2747 20.7802C35.4175 20.7802 38.4137 21.4131 41.1418 22.5537C36.1005 24.4845 32.2783 28.9931 32.2783 34.2489ZM44.0809 42.4688C39.6687 42.4688 36.0933 38.8935 36.0933 34.4813C36.0933 30.0692 39.6687 26.4938 44.0809 26.4938C48.493 26.4938 52.0683 30.0692 52.0683 34.4813C52.0683 38.8935 48.4929 42.4688 44.0809 42.4688ZM44.0809 30.2909C41.7675 30.2909 39.894 32.1644 39.894 34.4778C39.894 36.791 41.7675 38.6646 44.0809 38.6646C46.3941 38.6646 48.2677 36.791 48.2677 34.4778C48.2676 32.168 46.3941 30.2909 44.0809 30.2909ZM24.6591 34.4813C24.6591 36.7946 22.7856 38.6681 20.4723 38.6681C18.1591 38.6681 16.2855 36.7946 16.2855 34.4813C16.2855 32.168 18.1591 30.2945 20.4723 30.2945C22.7856 30.2909 24.6591 32.168 24.6591 34.4813Z" fill="black"/>
</g>
<defs>
<clipPath id="clip0_132_66">
<rect width="300.639" height="64" fill="white" transform="translate(0.27478)"/>
</clipPath>
</defs>
</svg>
