<svg width="281" height="64" viewBox="0 0 281 64" fill="none" xmlns="http://www.w3.org/2000/svg">
<path d="M62.4126 22.683H38.5794L31.2178 0L23.8332 22.683L0 22.66L19.3012 36.693L11.9166 59.353L31.2178 45.3429L50.496 59.353L43.1344 36.693L62.4126 22.683Z" fill="#00B67A"/>
<path d="M68.4356 18.0359H94.8224V22.959H84.4471V50.634H78.7419V22.959H68.4126V18.0359H68.4356ZM93.6951 27.0309H98.5722V31.5859H98.6642C98.8252 30.9417 99.1243 30.3206 99.5614 29.7224C99.9985 29.1243 100.528 28.5492 101.149 28.0661C101.77 27.56 102.46 27.1689 103.219 26.8468C103.978 26.5477 104.761 26.3867 105.543 26.3867C106.141 26.3867 106.578 26.4097 106.808 26.4327C107.038 26.4557 107.268 26.5017 107.521 26.5247V31.5398C107.153 31.4708 106.785 31.4248 106.394 31.3788C106.003 31.3328 105.635 31.3098 105.267 31.3098C104.392 31.3098 103.564 31.4938 102.782 31.8389C102 32.184 101.333 32.7131 100.758 33.3802C100.183 34.0704 99.7224 34.8986 99.3774 35.9108C99.0323 36.923 98.8713 38.0733 98.8713 39.3846V50.611H93.6721V27.0309H93.6951ZM131.423 50.634H126.316V47.3443H126.224C125.58 48.5406 124.637 49.4838 123.372 50.1969C122.106 50.9101 120.818 51.2782 119.507 51.2782C116.401 51.2782 114.147 50.519 112.766 48.9777C111.386 47.4363 110.696 45.1128 110.696 42.0071V27.0309H115.895V41.501C115.895 43.5715 116.286 45.0438 117.091 45.895C117.873 46.7462 119.001 47.1833 120.427 47.1833C121.531 47.1833 122.428 47.0222 123.165 46.6772C123.901 46.3321 124.499 45.895 124.936 45.3199C125.396 44.7677 125.718 44.0776 125.925 43.2954C126.132 42.5132 126.224 41.6621 126.224 40.7419V27.0539H131.423V50.634ZM140.28 43.0654C140.441 44.5837 141.016 45.6419 142.006 46.2631C143.018 46.8612 144.214 47.1833 145.617 47.1833C146.101 47.1833 146.653 47.1373 147.274 47.0682C147.895 46.9992 148.493 46.8382 149.022 46.6311C149.574 46.4241 150.011 46.102 150.38 45.6879C150.725 45.2738 150.886 44.7447 150.863 44.0776C150.84 43.4104 150.587 42.8583 150.126 42.4442C149.666 42.0071 149.091 41.6851 148.378 41.409C147.665 41.1559 146.86 40.9259 145.94 40.7419C145.019 40.5578 144.099 40.3508 143.156 40.1437C142.19 39.9367 141.247 39.6606 140.349 39.3616C139.452 39.0625 138.647 38.6484 137.934 38.1193C137.221 37.6132 136.646 36.946 136.231 36.1408C135.794 35.3357 135.587 34.3465 135.587 33.1502C135.587 31.8619 135.909 30.8037 136.53 29.9295C137.152 29.0553 137.957 28.3651 138.9 27.836C139.866 27.3069 140.924 26.9388 142.098 26.7088C143.271 26.5017 144.398 26.3867 145.456 26.3867C146.676 26.3867 147.849 26.5247 148.953 26.7778C150.057 27.0309 151.07 27.4449 151.967 28.0431C152.864 28.6182 153.6 29.3774 154.198 30.2976C154.796 31.2178 155.165 32.345 155.326 33.6563H149.896C149.643 32.414 149.091 31.5628 148.194 31.1488C147.297 30.7117 146.262 30.5046 145.111 30.5046C144.743 30.5046 144.306 30.5276 143.8 30.5966C143.294 30.6656 142.834 30.7807 142.374 30.9417C141.937 31.1027 141.569 31.3558 141.247 31.6779C140.947 31.9999 140.786 32.414 140.786 32.9431C140.786 33.5873 141.016 34.0934 141.454 34.4845C141.891 34.8756 142.466 35.1976 143.179 35.4737C143.892 35.7268 144.697 35.9568 145.617 36.1408C146.538 36.3249 147.481 36.5319 148.447 36.739C149.39 36.946 150.311 37.2221 151.231 37.5212C152.151 37.8202 152.956 38.2343 153.669 38.7634C154.382 39.2925 154.958 39.9367 155.395 40.7188C155.832 41.501 156.062 42.4902 156.062 43.6405C156.062 45.0438 155.74 46.217 155.096 47.2063C154.451 48.1725 153.623 48.9777 152.611 49.5758C151.599 50.1739 150.449 50.634 149.206 50.9101C147.964 51.1861 146.722 51.3242 145.502 51.3242C144.007 51.3242 142.627 51.1631 141.362 50.8181C140.096 50.473 138.992 49.9669 138.072 49.2997C137.152 48.6096 136.415 47.7584 135.886 46.7462C135.357 45.7339 135.081 44.5147 135.035 43.1114H140.28V43.0654ZM157.442 27.0309H161.376V19.9453H166.575V27.0309H171.268V30.9187H166.575V43.5255C166.575 44.0776 166.598 44.5377 166.644 44.9518C166.69 45.3429 166.805 45.6879 166.966 45.964C167.127 46.2401 167.38 46.4471 167.725 46.5851C168.07 46.7232 168.507 46.7922 169.106 46.7922C169.474 46.7922 169.842 46.7922 170.21 46.7692C170.578 46.7462 170.946 46.7002 171.314 46.6081V50.634C170.739 50.703 170.164 50.749 169.635 50.8181C169.083 50.8871 168.53 50.9101 167.955 50.9101C166.575 50.9101 165.471 50.772 164.643 50.519C163.814 50.2659 163.147 49.8749 162.687 49.3687C162.204 48.8626 161.905 48.2415 161.721 47.4823C161.56 46.7232 161.445 45.849 161.422 44.8828V30.9647H157.488V27.0309H157.442ZM174.949 27.0309H179.872V30.2286H179.964C180.7 28.8483 181.712 27.882 183.024 27.2839C184.335 26.6858 185.738 26.3867 187.28 26.3867C189.143 26.3867 190.753 26.7088 192.134 27.3759C193.514 28.0201 194.664 28.9173 195.584 30.0675C196.505 31.2178 197.172 32.5521 197.632 34.0704C198.092 35.5887 198.322 37.2221 198.322 38.9475C198.322 40.5348 198.115 42.0761 197.701 43.5485C197.287 45.0438 196.666 46.3551 195.837 47.5053C195.009 48.6556 193.951 49.5528 192.663 50.2429C191.374 50.9331 189.879 51.2782 188.131 51.2782C187.372 51.2782 186.612 51.2091 185.853 51.0711C185.094 50.9331 184.358 50.703 183.668 50.404C182.978 50.1049 182.311 49.7138 181.735 49.2307C181.137 48.7476 180.654 48.1955 180.24 47.5743H180.148V59.3529H174.949V27.0309ZM193.123 38.8554C193.123 37.7972 192.985 36.762 192.709 35.7498C192.433 34.7375 192.019 33.8633 191.467 33.0812C190.914 32.299 190.224 31.6779 189.419 31.2178C188.591 30.7577 187.648 30.5046 186.589 30.5046C184.404 30.5046 182.748 31.2638 181.643 32.7821C180.539 34.3004 179.987 36.3249 179.987 38.8554C179.987 40.0517 180.125 41.1559 180.424 42.1682C180.723 43.1804 181.137 44.0546 181.735 44.7907C182.311 45.5269 183.001 46.102 183.806 46.5161C184.611 46.9532 185.554 47.1603 186.612 47.1603C187.809 47.1603 188.798 46.9072 189.626 46.4241C190.454 45.941 191.121 45.2969 191.651 44.5377C192.18 43.7555 192.571 42.8813 192.801 41.8921C193.008 40.9029 193.123 39.8907 193.123 38.8554ZM202.302 18.0359H207.501V22.959H202.302V18.0359ZM202.302 27.0309H207.501V50.634H202.302V27.0309ZM212.148 18.0359H217.347V50.634H212.148V18.0359ZM233.29 51.2782C231.403 51.2782 229.724 50.9561 228.252 50.3349C226.779 49.7138 225.537 48.8396 224.502 47.7584C223.49 46.6541 222.707 45.3429 222.178 43.8245C221.649 42.3062 221.373 40.6268 221.373 38.8094C221.373 37.015 221.649 35.3587 222.178 33.8403C222.707 32.322 223.49 31.0107 224.502 29.9065C225.514 28.8022 226.779 27.9511 228.252 27.3299C229.724 26.7088 231.403 26.3867 233.29 26.3867C235.176 26.3867 236.855 26.7088 238.328 27.3299C239.8 27.9511 241.042 28.8252 242.078 29.9065C243.09 31.0107 243.872 32.322 244.401 33.8403C244.93 35.3587 245.206 37.015 245.206 38.8094C245.206 40.6268 244.93 42.3062 244.401 43.8245C243.872 45.3429 243.09 46.6541 242.078 47.7584C241.065 48.8626 239.8 49.7138 238.328 50.3349C236.855 50.9561 235.176 51.2782 233.29 51.2782ZM233.29 47.1603C234.44 47.1603 235.452 46.9072 236.303 46.4241C237.155 45.941 237.845 45.2968 238.397 44.5147C238.949 43.7325 239.34 42.8353 239.616 41.8461C239.869 40.8569 240.007 39.8447 240.007 38.8094C240.007 37.7972 239.869 36.808 239.616 35.7958C239.363 34.7836 238.949 33.9094 238.397 33.1272C237.845 32.345 237.155 31.7239 236.303 31.2408C235.452 30.7577 234.44 30.5046 233.29 30.5046C232.139 30.5046 231.127 30.7577 230.276 31.2408C229.425 31.7239 228.735 32.368 228.183 33.1272C227.63 33.9094 227.239 34.7836 226.963 35.7958C226.71 36.808 226.572 37.7972 226.572 38.8094C226.572 39.8447 226.71 40.8569 226.963 41.8461C227.216 42.8353 227.63 43.7325 228.183 44.5147C228.735 45.2968 229.425 45.941 230.276 46.4241C231.127 46.9302 232.139 47.1603 233.29 47.1603ZM246.725 27.0309H250.658V19.9453H255.858V27.0309H260.551V30.9187H255.858V43.5255C255.858 44.0776 255.881 44.5377 255.927 44.9518C255.973 45.3429 256.088 45.6879 256.249 45.964C256.41 46.2401 256.663 46.4471 257.008 46.5851C257.353 46.7232 257.79 46.7922 258.388 46.7922C258.756 46.7922 259.124 46.7922 259.492 46.7692C259.86 46.7462 260.229 46.7002 260.597 46.6081V50.634C260.021 50.703 259.446 50.749 258.917 50.8181C258.365 50.8871 257.813 50.9101 257.238 50.9101C255.858 50.9101 254.753 50.772 253.925 50.519C253.097 50.2659 252.43 49.8749 251.97 49.3687C251.487 48.8626 251.188 48.2415 251.004 47.4823C250.843 46.7232 250.727 45.849 250.704 44.8828V30.9647H246.771V27.0309H246.725Z" fill="white"/>
<path d="M48.2968 41.8232L46.5108 36.6931L33.6614 45.343L48.2968 41.8232Z" fill="#005128"/>
</svg>
