<svg width="48" height="48" viewBox="0 0 48 48" fill="none" xmlns="http://www.w3.org/2000/svg">
<g clip-path="url(#clip0_213_906)">
<path d="M2.46154 8.61539H45.5385C46.898 8.61539 48 9.71748 48 11.0769V36.9231C48 38.2826 46.898 39.3846 45.5385 39.3846H2.46154C1.10209 39.3846 0 38.2826 0 36.9231V11.0769C0 9.71748 1.10209 8.61539 2.46154 8.61539Z" fill="#0E4595"/>
<path d="M18.0429 30.0757L20.0959 18.0289H23.3796L21.3251 30.0757H18.0429ZM33.1881 18.2886C32.5377 18.0446 31.5181 17.7827 30.2452 17.7827C27.0006 17.7827 24.7151 19.4165 24.6957 21.7582C24.6773 23.4893 26.3273 24.455 27.5727 25.0312C28.8509 25.6217 29.2805 25.9982 29.2745 26.5255C29.2665 27.333 28.2538 27.7019 27.3101 27.7019C25.9958 27.7019 25.2976 27.5193 24.2192 27.0695L23.7961 26.8782L23.3352 29.575C24.1021 29.9112 25.5204 30.2025 26.9929 30.2176C30.4446 30.2176 32.6852 28.6025 32.7108 26.1018C32.7231 24.7314 31.8483 23.6885 29.9538 22.8287C28.8061 22.2715 28.1033 21.8995 28.1107 21.3353C28.1107 20.8345 28.7057 20.299 29.9911 20.299C31.0649 20.2824 31.8428 20.5166 32.4489 20.7606L32.7431 20.8996L33.1881 18.2886ZM41.638 18.0287H39.1006C38.3146 18.0287 37.7263 18.2433 37.3812 19.0278L32.5046 30.0678H35.9527C35.9527 30.0678 36.5164 28.5833 36.6439 28.2574C37.0208 28.2574 40.3703 28.2626 40.8493 28.2626C40.9475 28.6843 41.2487 30.0678 41.2487 30.0678H44.2957L41.638 18.0284V18.0287ZM37.6122 25.8078C37.8838 25.1137 38.9205 22.4403 38.9205 22.4403C38.9011 22.4724 39.19 21.7428 39.3559 21.2905L39.5777 22.3292C39.5777 22.3292 40.2066 25.2048 40.338 25.8078H37.6122ZM15.2553 18.0287L12.0405 26.2441L11.698 24.5746C11.0995 22.6501 9.23488 20.5651 7.15039 19.5212L10.0898 30.0566L13.5641 30.0526L18.7335 18.0286H15.2553" fill="white"/>
<path d="M9.04084 18.0283H3.74601L3.7041 18.279C7.82336 19.2761 10.549 21.6859 11.6807 24.5811L10.5293 19.0451C10.3306 18.2824 9.75413 18.0547 9.04096 18.0281" fill="#F2AE14"/>
</g>
<defs>
<clipPath id="clip0_213_906">
<rect width="48" height="48" fill="white"/>
</clipPath>
</defs>
</svg>
